<?xml version="1.0" encoding="utf-8"?>
<!-- Generator: Adobe Illustrator 16.0.3, SVG Export Plug-In . SVG Version: 6.00 Build 0)  -->
<!DOCTYPE svg PUBLIC "-//W3C//DTD SVG 1.1//EN" "http://www.w3.org/Graphics/SVG/1.1/DTD/svg11.dtd">
<svg version="1.1" id="Layer_1" xmlns="http://www.w3.org/2000/svg" xmlns:xlink="http://www.w3.org/1999/xlink" x="0px" y="0px"
	 preserveAspectRatio="xMinYMin meet"
	 viewBox="0 0 308 358"
	 xml:space="preserve">
<g>
	<linearGradient id="SVGID_1_" gradientUnits="userSpaceOnUse" x1="8.52" y1="318.3789" x2="98.7388" y2="318.3789">
		<stop  offset="0" style="stop-color:#FFDF6C"/>
		<stop  offset="0.8826" style="stop-color:#DFBA5C"/>
		<stop  offset="1" style="stop-color:#C9A151"/>
	</linearGradient>
	<path fill="url(#SVGID_1_)" stroke="#000000" stroke-width="5" stroke-miterlimit="10" d="M98.307,334.331
		c1.697-3.714-1.776-8.41-7.51-11.03l-72.215-26.628c-5.734-2.619-6.558-0.172-8.254,3.542l-1.537,3.361
		c-0.695,2.168-0.424,1.849,5.31,4.469l69.215,31.628c5.734,2.619,11.758,1.733,13.455-1.979L98.307,334.331z">
		<animateTransform attributeName="transform"         
			type="rotate"
            values="0 98 334;10 98 334;0 98 334"
 			dur="0.8s" 
 			repeatCount="indefinite"
 				/>
	</path>
	<linearGradient id="SVGID_2_" gradientUnits="userSpaceOnUse" x1="52.6431" y1="222.8066" x2="213.6431" y2="222.8066">
		<stop  offset="0" style="stop-color:#FFDF6C"/>
		<stop  offset="0.8826" style="stop-color:#DFBA5C"/>
		<stop  offset="1" style="stop-color:#C9A151"/>
	</linearGradient>
	<path fill="url(#SVGID_2_)" stroke="#000000" stroke-width="5" stroke-miterlimit="10" d="M213.643,331.619
		c0,6.627-5.373,13.5-12,13.5h-137c-6.627,0-12-6.873-12-13.5l70-218.75c0-6.627,5.373-12.375,12-12.375l53,8.812
		c6.627,0,12,6.029,12,12.656L213.643,331.619z"/>
	<g>
		<linearGradient id="SVGID_3_" gradientUnits="userSpaceOnUse" x1="110.041" y1="84.6729" x2="300.0063" y2="84.6729">
			<stop  offset="0" style="stop-color:#FFDF6C"/>
			<stop  offset="0.8826" style="stop-color:#DFBA5C"/>
			<stop  offset="1" style="stop-color:#C9A151"/>
		</linearGradient>
		<path fill="url(#SVGID_3_)" stroke="#000000" stroke-width="5" stroke-miterlimit="10" d="M274.727,139.581
			c-2.632,4.092-5.23,6.601-10.18,5.73l-148.469-25.014c-4.393-1.229-6.958-5.787-5.729-10.18L132.785,29.9
			c1.229-4.394,5.787-6.959,10.18-5.73l150.23,63.463c6.508,2.788,8.196,5.771,5.729,10.181L274.727,139.581z"/>
		<g>
			<linearGradient id="SVGID_4_" gradientUnits="userSpaceOnUse" x1="114.8594" y1="41.395" x2="165.3491" y2="41.395">
				<stop  offset="0" style="stop-color:#FFDF6C"/>
				<stop  offset="0.8826" style="stop-color:#DFBA5C"/>
				<stop  offset="1" style="stop-color:#C9A151"/>
			</linearGradient>
			<path fill="url(#SVGID_4_)" d="M117.203,37.792c-3.757-3.372-2.905-7.413,1.894-8.981l39.218-12.814
				c4.799-1.568,7.873,1.191,6.831,6.13L156.635,62.5c-1.042,4.939-4.968,6.222-8.725,2.851L117.203,37.792z"/>
			<path fill="none" stroke="#000000" stroke-width="5" stroke-miterlimit="10" d="M117.203,37.792
				c-3.757-3.372-2.905-7.413,1.894-8.981l39.218-12.814c4.799-1.568,7.873,1.191,6.831,6.13L156.635,62.5
				c-1.042,4.939-4.968,6.222-8.725,2.851L117.203,37.792z"/>
		</g>
		<circle cx="291.868" cy="95.432" r="7.649"/>
				<animateTransform attributeName="transform"         
			type="rotate"
            values="0 274 139;-5 274 139;0 274 139;0 274 139;0 274 139;0 274 139;0 274 139"
 			dur="3s" 
 			repeatCount="indefinite"
 				/>
	</g>
</g>
<g>
</g>
<g>
</g>
<g>
</g>
<g>
</g>
<g>
</g>
<g>
</g>
<g>
</g>
<g>
</g>
<g>
</g>
<g>
</g>
<g>
</g>
<g>
</g>
<g>
</g>
<g>
</g>
<g>
</g>
</svg>
