<?xml version="1.0" encoding="utf-8"?>
<!DOCTYPE svg PUBLIC "-//W3C//DTD SVG 1.1//EN" "http://www.w3.org/Graphics/SVG/1.1/DTD/svg11.dtd">
<svg version="1.1" 
	id="dog-logo" 
	xmlns="http://www.w3.org/2000/svg" 
	xmlns:xlink="http://www.w3.org/1999/xlink" 
	x="0px" 
	y="0px"
	preserveAspectRatio="xMinYMin meet"
	viewBox="0 0 296 355"
	xml:space="preserve">
<g>
	<g id="dog-body">
		<linearGradient id="SVGID_1_" gradientUnits="userSpaceOnUse" x1="2.5" y1="305.3213" x2="92.7188" y2="305.3213">
			<stop  offset="0" style="stop-color:#FFDF6C"/>
			<stop  offset="0.8826" style="stop-color:#DFBA5C"/>
			<stop  offset="1" style="stop-color:#C9A151"/>
		</linearGradient>
		<path fill="url(#SVGID_1_)" stroke="#211D0E" stroke-width="5" stroke-miterlimit="10" d="M92.287,321.273
			c1.697-3.714-1.776-8.41-7.51-11.03l-72.215-26.628c-5.734-2.619-6.558-0.172-8.254,3.542l-1.537,3.361
			c-0.695,2.168-0.424,1.849,5.31,4.469l69.215,31.628c5.734,2.619,11.758,1.733,13.455-1.979L92.287,321.273z"
			>
			<animateTransform attributeName="transform"         
				type="rotate"
            	values="0 98 334;0 98 334;0 98 334;0 98 334;0 98 334;0 98 334;0 98 334;10 98 334;0 98 334;10 98 334;0 98 334;10 98 334;0 98 334"
 				dur="3s" 
 				repeatCount="indefinite"
 			/>
		</path>
		<linearGradient id="SVGID_2_" gradientUnits="userSpaceOnUse" x1="46.623" y1="209.749" x2="207.623" y2="209.749">
			<stop  offset="0" style="stop-color:#FFDF6C"/>
			<stop  offset="0.8826" style="stop-color:#DFBA5C"/>
			<stop  offset="1" style="stop-color:#C9A151"/>
		</linearGradient>
		<path fill="url(#SVGID_2_)" stroke="#211D0E" stroke-width="5" stroke-miterlimit="10" d="M207.623,318.562
			c0,6.627-5.373,13.5-12,13.5h-137c-6.627,0-12-6.873-12-13.5l70-218.75c0-6.627,5.373-12.375,12-12.375l53,8.812
			c6.627,0,12,6.029,12,12.656L207.623,318.562z"/>
		<polygon fill="#0071BC" stroke="#000000" stroke-width="4" stroke-miterlimit="10" points="104.352,138.158 196.959,158.861 
			197.829,171.893 99.906,152.052 		"/>
	</g>
	<g id="dog-head">
		<linearGradient id="SVGID_3_" gradientUnits="userSpaceOnUse" x1="104.021" y1="71.6152" x2="293.9863" y2="71.6152">
			<stop  offset="0" style="stop-color:#FFDF6C"/>
			<stop  offset="0.8826" style="stop-color:#DFBA5C"/>
			<stop  offset="1" style="stop-color:#C9A151"/>
		</linearGradient>
		<path fill="url(#SVGID_3_)" stroke="#211D0E" stroke-width="5" stroke-miterlimit="10" d="M268.707,126.523
			c-2.632,4.092-5.23,6.601-10.18,5.73L110.058,107.24c-4.393-1.229-6.958-5.787-5.729-10.18l22.437-80.217
			c1.229-4.394,5.787-6.959,10.18-5.73l150.23,63.463c6.508,2.788,8.196,5.771,5.729,10.181L268.707,126.523z"/>
		<g id="dog-ear">
			<linearGradient id="SVGID_4_" gradientUnits="userSpaceOnUse" x1="108.8394" y1="28.3374" x2="159.3291" y2="28.3374">
				<stop  offset="0" style="stop-color:#FFDF6C"/>
				<stop  offset="0.8826" style="stop-color:#DFBA5C"/>
				<stop  offset="1" style="stop-color:#C9A151"/>
			</linearGradient>
			<path fill="url(#SVGID_4_)" d="M111.183,24.735c-3.757-3.372-2.905-7.413,1.894-8.981L152.295,2.94
				c4.799-1.568,7.873,1.191,6.831,6.13l-8.511,40.372c-1.042,4.939-4.968,6.222-8.725,2.851L111.183,24.735z">
				
			</path>
			<path fill="none" stroke="#211D0E" stroke-width="5" stroke-miterlimit="10" d="M111.183,24.735
				c-3.757-3.372-2.905-7.413,1.894-8.981L152.295,2.94c4.799-1.568,7.873,1.191,6.831,6.13l-8.511,40.372
				c-1.042,4.939-4.968,6.222-8.725,2.851L111.183,24.735z"/>
				<animateTransform 
					attributeName="transform" 
					type="rotate" 
					values="0 131 24;
							7 131 24;
							0 131 24" 
					dur="2s" 
					repeatCount="indefinite" />
		</g>
		<circle stroke="#211D0E" stroke-miterlimit="10" cx="285.848" cy="82.374" r="7.649"/>
		<animateTransform attributeName="transform"         
				type="rotate"

            	values="0 168 106;
            			-10 168 106;
            			0 168 106;"
 				dur="3s" 
 				repeatCount="indefinite"
 			/>
	</g>
</g>
</svg>
