<?xml version="1.0" encoding="utf-8"?>
<!-- Generator: Adobe Illustrator 16.0.3, SVG Export Plug-In . SVG Version: 6.00 Build 0)  -->
<!DOCTYPE svg PUBLIC "-//W3C//DTD SVG 1.1//EN" "http://www.w3.org/Graphics/SVG/1.1/DTD/svg11.dtd">
<svg version="1.1" id="Layer_1" xmlns="http://www.w3.org/2000/svg" xmlns:xlink="http://www.w3.org/1999/xlink" x="0px" y="0px"
	 preserveAspectRatio="xMinYMin meet"
	 viewBox="0 0 114 128"
	 xml:space="preserve">
<path fill="#83CD22" d="M56.91,128.37c-1.719,0-3.43-0.445-4.934-1.32l-15.707-9.289c-2.344-1.312-1.199-1.781-0.426-2.047
	c3.129-1.086,3.762-1.336,7.102-3.234c0.348-0.195,0.809-0.117,1.168,0.094l12.066,7.164c0.438,0.242,1.055,0.242,1.457,0
	l47.043-27.156c0.438-0.25,0.719-0.75,0.719-1.273V37.021c0-0.531-0.281-1.027-0.73-1.297L57.645,8.595
	c-0.434-0.254-1.012-0.254-1.449,0L9.184,35.731c-0.457,0.262-0.746,0.773-0.746,1.289v54.287c0,0.523,0.289,1.016,0.742,1.258
	l12.887,7.445c6.992,3.5,11.273-0.617,11.273-4.758v-53.6c0-0.758,0.609-1.355,1.367-1.355h5.965c0.746,0,1.363,0.598,1.363,1.355
	v53.6c0,9.336-5.082,14.688-13.93,14.688c-2.719,0-4.859,0-10.836-2.945L4.934,99.894C1.887,98.128,0,94.839,0,91.308V37.021
	c0-3.527,1.887-6.82,4.934-8.574L51.977,1.263c2.977-1.684,6.934-1.684,9.887,0l47.039,27.184c3.047,1.762,4.941,5.047,4.941,8.574
	v54.287c0,3.531-1.895,6.812-4.941,8.586L61.863,127.05C60.359,127.925,58.652,128.37,56.91,128.37z"/>
<path fill="#83CD22" d="M71.441,90.972c-20.586,0-24.898-9.453-24.898-17.375c0-0.758,0.605-1.359,1.359-1.359h6.082
	c0.68,0,1.246,0.492,1.352,1.156c0.918,6.188,3.656,9.312,16.105,9.312c9.91,0,14.129-2.242,14.129-7.5
	c0-3.031-1.195-5.281-16.598-6.789c-12.871-1.273-20.832-4.115-20.832-14.412c0-9.492,8-15.152,21.414-15.152
	c15.07,0,22.527,5.23,23.473,16.453c0.035,0.387-0.102,0.758-0.359,1.047c-0.258,0.27-0.617,0.434-0.996,0.434h-6.105
	c-0.633,0-1.191-0.449-1.32-1.062c-1.465-6.516-5.027-8.598-14.691-8.598c-10.82,0-12.078,3.77-12.078,6.594
	c0,3.422,1.484,4.418,16.094,6.352c14.457,1.91,21.324,4.619,21.324,14.775C94.895,85.097,86.348,90.972,71.441,90.972z"/>
<g>
</g>
<g>
</g>
<g>
</g>
<g>
</g>
<g>
</g>
<g>
</g>
<g>
</g>
<g>
</g>
<g>
</g>
<g>
</g>
<g>
</g>
<g>
</g>
<g>
</g>
<g>
</g>
<g>
</g>
</svg>
