<?xml version="1.0" encoding="utf-8"?>
<!-- Generator: Adobe Illustrator 16.0.3, SVG Export Plug-In . SVG Version: 6.00 Build 0)  -->
<!DOCTYPE svg PUBLIC "-//W3C//DTD SVG 1.1//EN" "http://www.w3.org/Graphics/SVG/1.1/DTD/svg11.dtd">
<svg version="1.1" id="Layer_1" xmlns="http://www.w3.org/2000/svg" xmlns:xlink="http://www.w3.org/1999/xlink" x="0px" y="0px"
	 preserveAspectRatio="xMinYMin meet"
	 viewBox="0 0 198 198"
	xml:space="preserve">
<linearGradient id="SVGID_1_" gradientUnits="userSpaceOnUse" x1="174.0703" y1="215.5449" x2="132.2703" y2="141.7449">
	<stop  offset="0" style="stop-color:#F29071"/>
	<stop  offset="0" style="stop-color:#F29071"/>
	<stop  offset="0.41" style="stop-color:#D94736"/>
	<stop  offset="0.99" style="stop-color:#A42423"/>
	<stop  offset="1" style="stop-color:#A42423"/>
</linearGradient>
<polygon fill-rule="evenodd" clip-rule="evenodd" fill="url(#SVGID_1_)" points="40.38,197.58 186.85,187.64 198.13,39.95 
	153.5,130.41 "/>
<linearGradient id="SVGID_2_" gradientUnits="userSpaceOnUse" x1="194.8945" y1="153.5566" x2="141.0257" y2="117.4074">
	<stop  offset="0" style="stop-color:#993626"/>
	<stop  offset="0" style="stop-color:#993626"/>
	<stop  offset="0.99" style="stop-color:#A03529"/>
	<stop  offset="1" style="stop-color:#A03529"/>
</linearGradient>
<polygon fill-rule="evenodd" clip-rule="evenodd" fill="url(#SVGID_2_)" points="140.21,145.93 187.09,187.54 174.5,100.65 "/>
<linearGradient id="SVGID_3_" gradientUnits="userSpaceOnUse" x1="151.7939" y1="217.7842" x2="97.9251" y2="181.6349">
	<stop  offset="0" style="stop-color:#993626"/>
	<stop  offset="0" style="stop-color:#993626"/>
	<stop  offset="0.99" style="stop-color:#A03529"/>
	<stop  offset="1" style="stop-color:#A03529"/>
</linearGradient>
<polygon fill-rule="evenodd" clip-rule="evenodd" fill="url(#SVGID_3_)" points="40.87,197.39 187.26,187.54 95.03,180.3 "/>
<linearGradient id="SVGID_4_" gradientUnits="userSpaceOnUse" x1="38.6958" y1="127.3916" x2="47.0468" y2="181.6646">
	<stop  offset="0" style="stop-color:#FFFFFF"/>
	<stop  offset="0" style="stop-color:#FFFFFF"/>
	<stop  offset="0.23" style="stop-color:#E38C6E"/>
	<stop  offset="0.46" style="stop-color:#D85839"/>
	<stop  offset="0.99" style="stop-color:#A60003"/>
	<stop  offset="1" style="stop-color:#A60003"/>
</linearGradient>
<polygon fill-rule="evenodd" clip-rule="evenodd" fill="url(#SVGID_4_)" points="13.34,132.77 41,197.41 64.04,121.93 "/>
<linearGradient id="SVGID_5_" gradientUnits="userSpaceOnUse" x1="96.1323" y1="76.7109" x2="99.2093" y2="132.1009">
	<stop  offset="0" style="stop-color:#FFFFFF"/>
	<stop  offset="0" style="stop-color:#FFFFFF"/>
	<stop  offset="0.23" style="stop-color:#E18B6A"/>
	<stop  offset="0.56" style="stop-color:#C03928"/>
	<stop  offset="0.99" style="stop-color:#AF2C21"/>
	<stop  offset="1" style="stop-color:#AF2C21"/>
</linearGradient>
<polygon fill-rule="evenodd" clip-rule="evenodd" fill="url(#SVGID_5_)" points="58.33,120.01 140.2,146.18 119,63.14 "/>
<linearGradient id="SVGID_6_" gradientUnits="userSpaceOnUse" x1="147.104" y1="25.5234" x2="156.315" y2="65.2185">
	<stop  offset="0" style="stop-color:#FFFFFF"/>
	<stop  offset="0" style="stop-color:#FFFFFF"/>
	<stop  offset="0.18" style="stop-color:#E07E5E"/>
	<stop  offset="0.4" style="stop-color:#C7422A"/>
	<stop  offset="0.99" style="stop-color:#AF2C21"/>
	<stop  offset="1" style="stop-color:#AF2C21"/>
</linearGradient>
<polygon fill-rule="evenodd" clip-rule="evenodd" fill="url(#SVGID_6_)" points="120,69.1 193.32,64.31 135.97,17.47 "/>
<linearGradient id="SVGID_7_" gradientUnits="userSpaceOnUse" x1="118.9761" y1="11.542" x2="158.67" y2="-8.305">
	<stop  offset="0" style="stop-color:#FFFFFF"/>
	<stop  offset="0" style="stop-color:#FFFFFF"/>
	<stop  offset="0.54" style="stop-color:#C63D2B"/>
	<stop  offset="0.99" style="stop-color:#BE2320"/>
	<stop  offset="1" style="stop-color:#BE2320"/>
</linearGradient>
<polygon fill-rule="evenodd" clip-rule="evenodd" fill="url(#SVGID_7_)" points="111.49,0.52 166.5,0.77 132.77,19.41 "/>
<linearGradient id="SVGID_8_" gradientUnits="userSpaceOnUse" x1="3.9038" y1="113.5552" x2="7.1708" y2="146.2651">
	<stop  offset="0" style="stop-color:#FFFFFF"/>
	<stop  offset="0" style="stop-color:#FFFFFF"/>
	<stop  offset="0.31" style="stop-color:#D95D3D"/>
	<stop  offset="0.99" style="stop-color:#C03926"/>
	<stop  offset="1" style="stop-color:#C03926"/>
</linearGradient>
<polygon fill-rule="evenodd" clip-rule="evenodd" fill="url(#SVGID_8_)" points="2.7,101.62 0,158.09 14.13,132.32 "/>
<path fill-rule="evenodd" clip-rule="evenodd" fill="#FFFFFF" d="M1.94,100.65l11.5,32.62l49.97-11.21l57.05-53.02l16.1-51.14
	L111.21,0l-43.1,16.13C54.53,28.76,28.18,53.75,27.23,54.22C26.29,54.7,9.83,85.81,1.94,100.65z"/>
<linearGradient id="SVGID_9_" gradientUnits="userSpaceOnUse" x1="-18.561" y1="155.1089" x2="135.0131" y2="-2.8083">
	<stop  offset="0" style="stop-color:#BD0012"/>
	<stop  offset="0" style="stop-color:#BD0012"/>
	<stop  offset="0.07" style="stop-color:#FFFFFF"/>
	<stop  offset="0.17" style="stop-color:#FFFFFF"/>
	<stop  offset="0.27" style="stop-color:#C84D35"/>
	<stop  offset="0.33" style="stop-color:#952F26"/>
	<stop  offset="0.46" style="stop-color:#AC3822"/>
	<stop  offset="0.72" style="stop-color:#B7331F"/>
	<stop  offset="0.99" style="stop-color:#D9411D"/>
	<stop  offset="1" style="stop-color:#D9411D"/>
</linearGradient>
<path fill-rule="evenodd" clip-rule="evenodd" fill="url(#SVGID_9_)" d="M42.32,42.05c29.43-29.18,67.37-46.42,81.93-31.73
	c14.55,14.69-0.88,50.39-30.31,79.56c-29.43,29.17-66.9,47.36-81.45,32.67C-2.07,107.87,12.89,71.22,42.32,42.05z"/>
<linearGradient id="SVGID_10_" gradientUnits="userSpaceOnUse" x1="99.0767" y1="171.0332" x2="52.8226" y2="159.6173">
	<stop  offset="0" style="stop-color:#9C2F25"/>
	<stop  offset="0" style="stop-color:#9C2F25"/>
	<stop  offset="0.54" style="stop-color:#A52D23"/>
	<stop  offset="0.99" style="stop-color:#B02C2B"/>
	<stop  offset="1" style="stop-color:#B02C2B"/>
</linearGradient>
<path fill-rule="evenodd" clip-rule="evenodd" fill="url(#SVGID_10_)" d="M41,197.38l22.86-75.72l75.92,24.39
	C112.33,171.79,81.8,193.55,41,197.38z"/>
<linearGradient id="SVGID_11_" gradientUnits="userSpaceOnUse" x1="178.5254" y1="115.5137" x2="137.4316" y2="78.6824">
	<stop  offset="0" style="stop-color:#93352B"/>
	<stop  offset="0" style="stop-color:#93352B"/>
	<stop  offset="0.99" style="stop-color:#A82D22"/>
	<stop  offset="1" style="stop-color:#A82D22"/>
</linearGradient>
<path fill-rule="evenodd" clip-rule="evenodd" fill="url(#SVGID_11_)" d="M120.56,68.89l19.49,77.2
	c22.93-24.11,43.51-50.03,53.59-82.09L120.56,68.89z"/>
<linearGradient id="SVGID_12_" gradientUnits="userSpaceOnUse" x1="193.6226" y1="47.937" x2="173.1525" y2="26.0531">
	<stop  offset="0" style="stop-color:#8F372C"/>
	<stop  offset="0" style="stop-color:#8F372C"/>
	<stop  offset="0.99" style="stop-color:#A93529"/>
	<stop  offset="1" style="stop-color:#A93529"/>
</linearGradient>
<path fill-rule="evenodd" clip-rule="evenodd" fill="url(#SVGID_12_)" d="M193.44,64.39c7.8-23.54,9.6-57.31-27.18-63.58
	l-30.18,16.67L193.44,64.39z"/>
<path fill-rule="evenodd" clip-rule="evenodd" fill="#A93527" d="M0,157.75c1.08,38.85,29.11,39.43,41.05,39.77l-27.58-64.41
	L0,157.75z"/>
<radialGradient id="SVGID_13_" cx="143.8296" cy="79.3901" r="50.36" gradientUnits="userSpaceOnUse">
	<stop  offset="0" style="stop-color:#AF2C21"/>
	<stop  offset="0" style="stop-color:#AF2C21"/>
	<stop  offset="0.99" style="stop-color:#933229"/>
	<stop  offset="1" style="stop-color:#933229"/>
</radialGradient>
<path fill-rule="evenodd" clip-rule="evenodd" fill="url(#SVGID_13_)" d="M120.67,69.01c17.62,10.83,53.13,32.58,53.85,32.98
	c1.12,0.63,15.31-23.93,18.53-37.81L120.67,69.01z"/>
<radialGradient id="SVGID_14_" cx="74.0898" cy="145.75" r="66.9469" gradientUnits="userSpaceOnUse">
	<stop  offset="0" style="stop-color:#AC2C21"/>
	<stop  offset="0" style="stop-color:#AC2C21"/>
	<stop  offset="0.99" style="stop-color:#95332A"/>
	<stop  offset="1" style="stop-color:#95332A"/>
</radialGradient>
<path fill-rule="evenodd" clip-rule="evenodd" fill="url(#SVGID_14_)" d="M63.83,121.66l30.56,58.96
	c18.07-9.8,32.22-21.74,45.18-34.53L63.83,121.66z"/>
<linearGradient id="SVGID_15_" gradientUnits="userSpaceOnUse" x1="26.6714" y1="197.3394" x2="9.9893" y2="140.7424">
	<stop  offset="0" style="stop-color:#9C4230"/>
	<stop  offset="0" style="stop-color:#9C4230"/>
	<stop  offset="0.43" style="stop-color:#A93129"/>
	<stop  offset="0.99" style="stop-color:#B72F29"/>
	<stop  offset="1" style="stop-color:#B72F29"/>
</linearGradient>
<path fill-rule="evenodd" clip-rule="evenodd" fill="url(#SVGID_15_)" d="M13.35,133.19l-4.33,51.56
	c8.17,11.16,19.41,12.13,31.2,11.26C31.69,174.78,14.65,132.33,13.35,133.19z"/>
<linearGradient id="SVGID_16_" gradientUnits="userSpaceOnUse" x1="154.6421" y1="9.7983" x2="192.0421" y2="26.3073">
	<stop  offset="0" style="stop-color:#B62F1F"/>
	<stop  offset="0" style="stop-color:#B62F1F"/>
	<stop  offset="0.44" style="stop-color:#A03228"/>
	<stop  offset="0.99" style="stop-color:#8F3F30"/>
	<stop  offset="1" style="stop-color:#8F3F30"/>
</linearGradient>
<path fill-rule="evenodd" clip-rule="evenodd" fill="url(#SVGID_16_)" d="M135.9,17.61l60.71,8.52
	c-3.24-13.73-13.19-22.59-30.15-25.36L135.9,17.61z"/>
</svg>
